<svg fill="none" xmlns="http://www.w3.org/2000/svg">
<symbol id="fb" viewBox="0 0 24 24">
<path d="M13.9359 23.8453C13.8375 23.8594 13.7344 23.8781 13.6359 23.8922C13.7344 23.8735 13.8328 23.8594 13.9359 23.8453Z"/>
<path d="M14.175 23.8031C14.1281 23.8125 14.0812 23.8219 14.0297 23.8265C14.0812 23.8219 14.1281 23.8125 14.175 23.8031Z"/>
<path d="M13.3641 23.9203C13.2469 23.9344 13.1297 23.9437 13.0125 23.9531C13.1297 23.9484 13.2469 23.9344 13.3641 23.9203Z"/>
<path d="M13.5984 23.8922C13.5422 23.9016 13.4859 23.9063 13.4297 23.911C13.4813 23.9063 13.5422 23.9016 13.5984 23.8922Z"/>
<path d="M14.5031 23.7375C14.4609 23.7469 14.4188 23.7562 14.3766 23.7656C14.4188 23.7562 14.4609 23.7469 14.5031 23.7375Z"/>
<path d="M15.3141 23.5359C15.2813 23.5453 15.2437 23.5547 15.2109 23.5641C15.2437 23.5547 15.2766 23.5453 15.3141 23.5359Z"/>
<path d="M15.0656 23.6016C15.0281 23.6109 14.9906 23.6203 14.9531 23.6297C14.9953 23.625 15.0281 23.6156 15.0656 23.6016Z"/>
<path d="M14.7469 23.6859C14.7094 23.6953 14.6672 23.7047 14.6297 23.714C14.6672 23.7 14.7094 23.6906 14.7469 23.6859Z"/>
<path d="M13.0078 23.9578C12.9469 23.9625 12.8812 23.9672 12.8203 23.9719C12.8812 23.9672 12.9469 23.9625 13.0078 23.9578Z"/>
<path d="M24 12C24 5.37188 18.6281 0 12 0C5.37188 0 0 5.37188 0 12C0 18.6281 5.37188 24 12 24C12.0703 24 12.1406 24 12.2109 23.9953V14.6578H9.63281V11.6531H12.2109V9.44062C12.2109 6.87656 13.7766 5.47969 16.0641 5.47969C17.1609 5.47969 18.1031 5.55938 18.375 5.59688V8.27813H16.8C15.5578 8.27813 15.3141 8.86875 15.3141 9.73594V11.6484H18.2906L17.9016 14.6531H15.3141V23.5359C20.3297 22.0969 24 17.4797 24 12Z"/>
<path d="M12.7922 23.9719C12.6656 23.9812 12.5437 23.9859 12.4172 23.9906C12.5437 23.9859 12.6656 23.9812 12.7922 23.9719Z"/>
<path d="M12.4125 23.9906C12.3469 23.9906 12.2813 23.9953 12.2156 23.9953C12.2766 23.9953 12.3422 23.9953 12.4125 23.9906Z"/>
</symbol>

<symbol id="vk" viewBox="0 0 24 24">
<path d="M12 0C5.37423 0 0 5.37423 0 12C0 18.6258 5.37423 24 12 24C18.6258 24 24 18.6258 24 12C24 5.37423 18.6258 0 12 0ZM18.0859 13.3006C18.6503 13.8405 19.2393 14.3558 19.7301 14.9693C19.9509 15.2393 20.1718 15.5092 20.319 15.8282C20.5399 16.2699 20.3436 16.7607 19.9509 16.7853H17.4969C16.8589 16.8344 16.3681 16.589 15.9264 16.1472C15.5828 15.8037 15.2638 15.4356 14.9448 15.0675C14.8221 14.9202 14.6748 14.773 14.5031 14.6748C14.1595 14.454 13.865 14.5276 13.6933 14.8712C13.4969 15.2393 13.4479 15.6319 13.4233 16.0245C13.3988 16.6135 13.227 16.7607 12.638 16.7853C11.3865 16.8344 10.2086 16.6626 9.12883 16.0245C8.17178 15.4601 7.41104 14.6994 6.77301 13.816C5.49693 12.0982 4.53988 10.2086 3.65644 8.26994C3.46012 7.82822 3.60736 7.60736 4.09816 7.58282C4.90798 7.55828 5.69325 7.55828 6.50307 7.58282C6.82209 7.58282 7.04294 7.77914 7.16564 8.07362C7.60736 9.12883 8.1227 10.1595 8.78528 11.092C8.95705 11.3374 9.15337 11.5828 9.39877 11.7791C9.69325 11.9755 9.88957 11.9018 10.0368 11.5828C10.1104 11.3865 10.1595 11.1656 10.184 10.9448C10.2577 10.2086 10.2577 9.47239 10.135 8.7362C10.0613 8.2454 9.81595 7.95092 9.34969 7.85276C9.10429 7.80368 9.15337 7.73006 9.25153 7.58282C9.44785 7.36196 9.64417 7.21472 10.0123 7.21472H12.7853C13.227 7.31288 13.3252 7.48466 13.3742 7.92638V11.0184C13.3742 11.1902 13.4479 11.7055 13.7669 11.8037C14.0123 11.8773 14.184 11.681 14.3313 11.5337C14.9939 10.8221 15.4601 9.98773 15.9018 9.12883C16.0982 8.7362 16.2454 8.34356 16.4172 7.95092C16.5399 7.65644 16.7117 7.5092 17.0552 7.5092H19.7301C19.8037 7.5092 19.8773 7.5092 19.9755 7.53374C20.4172 7.60736 20.5399 7.80368 20.4172 8.2454C20.1963 8.93251 19.7791 9.52147 19.362 10.0859C18.9202 10.6994 18.4294 11.2883 17.9877 11.9264C17.546 12.5153 17.5706 12.8098 18.0859 13.3006Z"/>
</symbol>

<symbol id="inst" viewBox="0 0 24 24">
<path d="M14.2969 12C14.2969 13.2703 13.2703 14.2969 12 14.2969C10.7297 14.2969 9.70312 13.2703 9.70312 12C9.70312 10.7297 10.7297 9.70312 12 9.70312C13.2703 9.70312 14.2969 10.7297 14.2969 12Z" />
<path d="M17.3719 7.93593C17.2594 7.63593 17.0859 7.36405 16.8563 7.14374C16.6359 6.91405 16.3641 6.74061 16.0641 6.62811C15.8203 6.53436 15.4547 6.42186 14.7844 6.38905C14.0578 6.35624 13.8375 6.34686 12 6.34686C10.1578 6.34686 9.94219 6.35155 9.21563 6.38905C8.54531 6.42186 8.17969 6.53436 7.93594 6.62811C7.63594 6.74061 7.36406 6.91405 7.14375 7.14374C6.91406 7.36405 6.74062 7.63593 6.62812 7.93593C6.53437 8.17968 6.42187 8.5453 6.38906 9.21561C6.35625 9.94218 6.34687 10.1578 6.34687 12C6.34687 13.8375 6.35625 14.0578 6.38906 14.7844C6.42187 15.4547 6.52969 15.8203 6.62812 16.0641C6.74062 16.364 6.91406 16.6359 7.14375 16.8562C7.36406 17.0859 7.63594 17.2594 7.93594 17.3719C8.17969 17.4656 8.54531 17.5781 9.21563 17.6109C9.94219 17.6437 10.1578 17.6531 12 17.6531C13.8422 17.6531 14.0578 17.6484 14.7844 17.6109C15.4547 17.5781 15.8203 17.4703 16.0641 17.3719C16.6641 17.1422 17.1422 16.6641 17.3719 16.0641C17.4656 15.8203 17.5781 15.4547 17.6109 14.7844C17.6438 14.0578 17.6531 13.8375 17.6531 12C17.6531 10.1578 17.6484 9.94218 17.6109 9.21561C17.5781 8.5453 17.4656 8.17968 17.3719 7.93593ZM12 15.5391C10.0453 15.5391 8.46094 13.9547 8.46094 12C8.46094 10.0453 10.0453 8.46093 12 8.46093C13.9547 8.46093 15.5391 10.0453 15.5391 12C15.5391 13.9547 13.9547 15.5391 12 15.5391ZM15.6797 9.14999C15.225 9.14999 14.8547 8.77968 14.8547 8.32499C14.8547 7.8703 15.225 7.49999 15.6797 7.49999C16.1344 7.49999 16.5047 7.8703 16.5047 8.32499C16.5047 8.77968 16.1344 9.14999 15.6797 9.14999Z"/>
<path d="M12 0C5.37188 0 0 5.37188 0 12C0 18.6281 5.37188 24 12 24C18.6281 24 24 18.6281 24 12C24 5.37188 18.6281 0 12 0ZM18.8484 14.8406C18.8156 15.5719 18.6984 16.0734 18.5297 16.5141C18.1734 17.4375 17.4422 18.1734 16.5141 18.5297C16.0781 18.6984 15.5766 18.8156 14.8406 18.8484C14.1047 18.8813 13.8703 18.8906 12 18.8906C10.1297 18.8906 9.89531 18.8813 9.15937 18.8484C8.42812 18.8156 7.92656 18.6984 7.48594 18.5297C7.02656 18.3562 6.60938 18.0844 6.26719 17.7328C5.91562 17.3906 5.64375 16.9734 5.47031 16.5141C5.30156 16.0781 5.18438 15.5766 5.15156 14.8406C5.11875 14.1047 5.10938 13.8703 5.10938 12C5.10938 10.1297 5.11875 9.89531 5.15156 9.15937C5.18438 8.42812 5.30156 7.92656 5.47031 7.48594C5.64375 7.02656 5.91562 6.60938 6.26719 6.26719C6.60938 5.91562 7.02656 5.64375 7.48594 5.47031C7.92656 5.30156 8.42344 5.18438 9.15937 5.15156C9.89531 5.11875 10.1297 5.10938 12 5.10938C13.8703 5.10938 14.1047 5.11875 14.8406 5.15156C15.5719 5.18438 16.0734 5.30156 16.5141 5.47031C16.9734 5.64375 17.3906 5.91562 17.7328 6.26719C18.0844 6.60938 18.3562 7.02656 18.5297 7.48594C18.6984 7.92656 18.8156 8.42344 18.8484 9.15937C18.8813 9.89531 18.8906 10.1297 18.8906 12C18.8906 13.8703 18.8813 14.1047 18.8484 14.8406Z"/>
</symbol>

<symbol id="tg" viewBox="0 0 24 24">
<path d="M12 24C18.6281 24 24 18.6281 24 12C24 5.37188 18.6281 0 12 0C5.37188 0 0 5.37188 0 12C0 18.6281 5.37188 24 12 24ZM5.48906 11.7422L17.0625 7.27969C17.6016 7.0875 18.0703 7.41094 17.8922 8.22187L15.9234 17.5031C15.7781 18.1594 15.3844 18.3234 14.8406 18.0094L11.8406 15.7969L10.3922 17.1891C10.2328 17.3484 10.0969 17.4844 9.7875 17.4844L9.99844 14.4328L15.5625 9.4125C15.8062 9.20156 15.5063 9.07969 15.1875 9.29062L8.31562 13.6172L5.35312 12.6937C4.71094 12.4875 4.69688 12.0516 5.48906 11.7422Z"/>
</symbol>

<symbol id="arrow-left"  fill="none">
<path d="M14 28L1.91422 15.9142C1.13317 15.1332 1.13317 13.8668 1.91421 13.0858L14 1"/>
</symbol>

<symbol id="arrow-right"  fill="none">
<path d="M1 1L13.0858 13.0858C13.8668 13.8668 13.8668 15.1332 13.0858 15.9142L1 28" />
</symbol>

<symbol id="gear"  >
<rect width="91" height="91" rx="4" fill="#9A9A9A"/>
<g clip-path="url(#clip0)">
<path d="M46 35.1111C39.9956 35.1111 35.1111 39.9955 35.1111 46C35.1111 52.0044 39.9956 56.8889 46 56.8889C52.0044 56.8889 56.8889 52.0044 56.8889 46C56.8889 39.9955 52.0044 35.1111 46 35.1111ZM46 55.3333C40.8534 55.3333 36.6667 51.1465 36.6667 46C36.6667 40.8534 40.8534 36.6666 46 36.6666C51.1466 36.6666 55.3333 40.8534 55.3333 46C55.3333 51.1465 51.1466 55.3333 46 55.3333Z" fill="white"/>
<path d="M64.8378 41.3333H63.2682C62.8677 39.8462 62.2789 38.4229 61.5104 37.089L62.6196 35.9799C63.0279 35.5716 63.2527 35.0279 63.2527 34.4508C63.2527 33.8729 63.0279 33.33 62.6196 32.9209L59.0783 29.3797C58.2617 28.5638 56.8376 28.5622 56.0193 29.3797L54.9102 30.4888C53.5756 29.7211 52.153 29.1323 50.6667 28.7318V27.1622C50.6667 25.9699 49.6968 25 48.5044 25H43.4956C42.3032 25 41.3333 25.9699 41.3333 27.1622V28.7318C39.847 29.1323 38.4244 29.7211 37.089 30.4896L35.9799 29.3804C35.1624 28.5622 33.7376 28.5638 32.9209 29.3804L29.3797 32.9217C28.9713 33.33 28.7466 33.8737 28.7466 34.4516C28.7466 35.0287 28.9713 35.5716 29.3797 35.9807L30.4888 37.0898C29.7211 38.4229 29.1316 39.8462 28.7318 41.3333H27.1622C25.9699 41.3333 25 42.3032 25 43.4956V48.5037C25 49.6968 25.9699 50.6667 27.1622 50.6667H28.7318C29.1323 52.153 29.7211 53.5756 30.4896 54.911L29.3804 56.0201C28.9721 56.4284 28.7473 56.9721 28.7473 57.5492C28.7473 58.1271 28.9721 58.67 29.3804 59.0791L32.9217 62.6203C33.7383 63.4378 35.1632 63.4386 35.9807 62.6203L37.0898 61.5112C38.4252 62.2789 39.8478 62.8684 41.3341 63.269V64.8386C41.3341 66.0309 42.304 67.0008 43.4963 67.0008H48.5044C49.6968 67.0008 50.6667 66.0309 50.6667 64.8386V63.269C52.153 62.8684 53.5756 62.2797 54.911 61.5112L56.0201 62.6203C56.8383 63.4386 58.2617 63.437 59.0791 62.6203L62.6203 59.0791C63.0287 58.6708 63.2534 58.1271 63.2534 57.5492C63.2534 56.9721 63.0287 56.4292 62.6203 56.0201L61.5112 54.911C62.2789 53.5756 62.8684 52.153 63.269 50.6667H64.8386C66.0309 50.6667 67.0008 49.6968 67.0008 48.5044V43.4956C67 42.3032 66.0301 41.3333 64.8378 41.3333ZM65.4444 48.5044C65.4444 48.8389 65.1722 49.1111 64.8378 49.1111H62.044L61.904 49.7123C61.4988 51.4522 60.8159 53.1034 59.8717 54.6209L59.545 55.1451L61.5198 57.1199C61.757 57.3571 61.757 57.7421 61.5198 57.9786L57.9786 61.5198C57.7421 61.7562 57.3571 61.7578 57.1199 61.5198L55.1451 59.545L54.6209 59.8717C53.1042 60.8159 51.453 61.4996 49.7123 61.904L49.1111 62.044V64.8378C49.1111 65.1722 48.8389 65.4444 48.5044 65.4444H43.4956C43.1611 65.4444 42.8889 65.1722 42.8889 64.8378V62.044L42.2877 61.904C40.5478 61.4988 38.8966 60.8159 37.3791 59.8717L36.8549 59.545L34.8801 61.5198C34.6421 61.7578 34.2571 61.7562 34.0214 61.5198L30.4802 57.9786C30.243 57.7413 30.243 57.3563 30.4802 57.1199L32.455 55.1451L32.1283 54.6209C31.1841 53.1042 30.5004 51.453 30.096 49.7123L29.956 49.1111H27.1622C26.8278 49.1111 26.5556 48.8389 26.5556 48.5044V43.4956C26.5556 43.1611 26.8278 42.8889 27.1622 42.8889H29.956L30.096 42.2877C30.5012 40.547 31.1841 38.8958 32.1283 37.3791L32.455 36.8549L30.4802 34.8801C30.243 34.6429 30.243 34.2579 30.4802 34.0214L34.0214 30.4802C34.2579 30.2438 34.6429 30.2422 34.8801 30.4802L36.8549 32.455L37.3791 32.1283C38.8958 31.1841 40.547 30.5004 42.2877 30.096L42.8889 29.956V27.1622C42.8889 26.8278 43.1611 26.5556 43.4956 26.5556H48.5037C48.8389 26.5556 49.1111 26.8278 49.1111 27.1622V29.956L49.7123 30.096C51.4522 30.5012 53.1034 31.1841 54.6209 32.1283L55.1451 32.455L57.1199 30.4802C57.3579 30.2422 57.7429 30.2438 57.9786 30.4802L61.5198 34.0214C61.757 34.2587 61.757 34.6437 61.5198 34.8801L59.545 36.8549L59.8717 37.3791C60.8159 38.895 61.4996 40.5462 61.904 42.2877L62.044 42.8889H64.8378C65.1722 42.8889 65.4444 43.1611 65.4444 43.4956V48.5044Z" fill="white"/>
<path d="M46 38.2222C41.7113 38.2222 38.2222 41.7113 38.2222 45.9999C38.2222 50.2886 41.7113 53.7777 46 53.7777C50.2887 53.7777 53.7778 50.2886 53.7778 45.9999C53.7778 41.7113 50.2887 38.2222 46 38.2222ZM46 52.2222C42.5692 52.2222 39.7778 49.4307 39.7778 45.9999C39.7778 42.5692 42.5692 39.7777 46 39.7777C49.4308 39.7777 52.2222 42.5692 52.2222 45.9999C52.2222 49.4307 49.4308 52.2222 46 52.2222Z" fill="white"/>
</g>
<defs>
<clipPath id="clip0">
<rect width="42" height="42" fill="white" transform="translate(25 25)"/>
</clipPath>
</defs>
</symbol>

<symbol id="bluetooth"  fill="none">
<g clip-path="url(#clip0)">
<path d="M18.2054 17.5212L13.1636 12L18.2054 6.47941C18.3637 6.30555 18.4445 6.0739 18.4276 5.83901C18.4107 5.60388 18.2984 5.38591 18.1163 5.23643L11.9874 0.195911C11.7305 -0.0154485 11.3753 -0.0598392 11.0746 0.0825203C10.7739 0.22427 10.5823 0.526708 10.5823 0.859239V9.1736L7.06391 5.32043C6.74426 4.97018 6.20042 4.94552 5.85017 5.26544C5.49992 5.58537 5.47526 6.12865 5.79518 6.47918L10.5823 11.7217V12.2784L5.79523 17.5212C5.47503 17.8711 5.49968 18.4147 5.85022 18.7349C6.20075 19.0551 6.74408 19.0304 7.06395 18.6796L10.5821 14.827V23.1408C10.5821 23.473 10.774 23.7757 11.0744 23.9178C11.1913 23.9728 11.3167 24 11.4413 24C11.6369 24 11.8305 23.9336 11.9874 23.8047L18.1163 18.7641C18.2984 18.6143 18.4107 18.3964 18.4276 18.1615C18.4445 17.9267 18.3643 17.695 18.2054 17.5212ZM12.3007 2.67837L16.326 5.98854L12.3007 10.3968V2.67837ZM12.3007 21.3216V13.6035L16.326 18.0115L12.3007 21.3216Z" fill="black"/>
</g>
<defs>
<clipPath id="clip0">
<rect  fill="black"/>
</clipPath>
</defs>
</symbol>

<symbol id="road"  fill="none">
<path d="M5.25 4.5C2.355 4.5 0 6.855 0 9.75C0 12.444 4.212 17.2155 4.692 17.751C4.8345 17.9085 5.037 18 5.25 18C5.463 18 5.6655 17.9085 5.808 17.751C6.288 17.2155 10.5 12.444 10.5 9.75C10.5 6.855 8.145 4.5 5.25 4.5ZM5.25 16.1055C3.612 14.163 1.5 11.181 1.5 9.75C1.5 7.683 3.183 6 5.25 6C7.317 6 9 7.683 9 9.75C9 11.1795 6.888 14.163 5.25 16.1055Z" fill="black"/>
<path d="M5.25 7.5C4.0095 7.5 3 8.5095 3 9.75C3 10.9905 4.0095 12 5.25 12C6.4905 12 7.5 10.9905 7.5 9.75C7.5 8.5095 6.4905 7.5 5.25 7.5ZM5.25 10.5C4.836 10.5 4.5 10.164 4.5 9.75C4.5 9.336 4.836 9 5.25 9C5.664 9 6 9.336 6 9.75C6 10.164 5.664 10.5 5.25 10.5Z" fill="black"/>
<path d="M23.25 0H17.25C16.836 0 16.5 0.336 16.5 0.75V5.25V8.25C16.5 8.664 16.836 9 17.25 9C17.664 9 18 8.664 18 8.25V6H23.25C23.664 6 24 5.664 24 5.25V0.75C24 0.336 23.664 0 23.25 0ZM22.5 4.5H18V1.5H22.5V4.5Z" fill="black"/>
<path d="M21 16.5H13.5C12.6735 16.5 12 15.8265 12 15C12 14.1735 12.6735 13.5 13.5 13.5H15.138C15.4485 14.3715 16.2735 15 17.25 15C18.4905 15 19.5 13.9905 19.5 12.75C19.5 11.5095 18.4905 10.5 17.25 10.5C16.2735 10.5 15.4485 11.1285 15.138 12H13.5C11.8455 12 10.5 13.3455 10.5 15C10.5 16.6545 11.8455 18 13.5 18H21C21.8265 18 22.5 18.6735 22.5 19.5C22.5 20.3265 21.8265 21 21 21H7.362C7.0515 20.1285 6.2265 19.5 5.25 19.5C4.0095 19.5 3 20.5095 3 21.75C3 22.9905 4.0095 24 5.25 24C6.2265 24 7.0515 23.3715 7.362 22.5H21C22.6545 22.5 24 21.1545 24 19.5C24 17.8455 22.6545 16.5 21 16.5ZM17.25 12C17.664 12 18 12.336 18 12.75C18 13.164 17.664 13.5 17.25 13.5C16.836 13.5 16.5 13.164 16.5 12.75C16.5 12.336 16.836 12 17.25 12ZM5.25 22.5C4.836 22.5 4.5 22.164 4.5 21.75C4.5 21.336 4.836 21 5.25 21C5.664 21 6 21.336 6 21.75C6 22.164 5.664 22.5 5.25 22.5Z" fill="black"/>
</symbol>

<symbol id="almond"  fill="none">
<g clip-path="url(#clip0)">
<path d="M26.08 11.2274V9.12612C26.08 8.73628 25.7639 8.42024 25.3741 8.42024H22.096C21.7061 8.42024 21.3901 8.73628 21.3901 9.12612V11.2274C21.0301 11.2596 20.7478 11.5617 20.7478 11.9301V15.7258C20.7478 16.5907 21.4515 17.2943 22.3164 17.2943H23.0292V24.8141C23.0292 25.7924 22.2331 26.5882 21.2546 26.5882H13.5383C12.5601 26.5882 11.7642 25.7924 11.7642 24.8141V23.2941H13.2654C13.6552 23.2941 13.9713 22.9781 13.9713 22.5882V20.298H14.7211C15.8887 20.298 16.8387 19.348 16.8387 18.1804V11.7782C16.8387 10.8261 16.2069 10.0189 15.3407 9.75327V7.33271C15.3407 6.94287 15.0246 6.62682 14.6348 6.62682H13.647V4.70588C13.647 4.31605 13.331 4 12.9412 4C12.5513 4 12.2353 4.31605 12.2353 4.70588V6.62682H9.88139V4.70588C9.88139 4.31605 9.56534 4 9.17551 4C8.78567 4 8.46963 4.31605 8.46963 4.70588V6.62682H7.48186C7.09202 6.62682 6.77598 6.94287 6.77598 7.33271V9.75327C5.90967 10.0189 5.27795 10.826 5.27795 11.7782V18.1804C5.27795 19.348 6.22793 20.298 7.3956 20.298H8.14539V22.5882C8.14539 22.9781 8.46144 23.2941 8.85127 23.2941H10.3524V24.8141C10.3524 26.5708 11.7816 28 13.5383 28H21.2546C23.0115 28 24.4409 26.5708 24.4409 24.8141V17.2943H25.1535C26.0184 17.2943 26.722 16.5907 26.722 15.7258V11.9301C26.722 11.5618 26.4398 11.2598 26.08 11.2274ZM13.9289 8.03859V9.66056H8.18774V8.03859H13.9289ZM6.68967 18.1804V11.7782C6.68967 11.389 7.00633 11.0723 7.39555 11.0723H14.7211C15.1103 11.0723 15.4269 11.389 15.4269 11.7782V18.1804C15.4269 18.5696 15.1103 18.8863 14.7211 18.8863C14.4252 18.8863 7.73245 18.8863 7.39555 18.8863C7.00633 18.8863 6.68967 18.5696 6.68967 18.1804ZM9.55715 20.298H12.5595V21.8824H9.55715V20.298ZM24.6682 9.832V11.2242H22.8019V9.832H24.6682ZM25.3103 15.7258C25.3103 15.8122 25.2399 15.8825 25.1535 15.8825C25.0671 15.8825 23.1153 15.8825 22.3164 15.8825C22.2299 15.8825 22.1596 15.8122 22.1596 15.7258V12.636H25.3103V15.7258Z" fill="black"/>
<path d="M10.1638 15.6851H10.8799L10.5678 16.4089C10.4134 16.7669 10.5785 17.1823 10.9364 17.3366C11.295 17.4911 11.7099 17.3255 11.8641 16.9679L12.6011 15.2588C12.802 14.7928 12.4593 14.2734 11.9529 14.2734H11.2368L11.5489 13.5496C11.7033 13.1917 11.5382 12.7763 11.1802 12.6219C10.8222 12.4676 10.4069 12.6327 10.2526 12.9906L9.51558 14.6998C9.31464 15.1657 9.65741 15.6851 10.1638 15.6851Z" fill="black"/>
</g>
<defs>
<clipPath id="clip0">
<rect width="24" height="24" fill="white" transform="translate(4 4)"/>
</clipPath>
</defs></symbol>

<symbol id="washing-powder"  fill="none">
<path d="M24.3373 10.3997H18.9742C19.5392 9.7226 19.88 8.85193 19.88 7.90308C19.88 5.75085 18.1292 4 15.9771 4C13.8249 4 12.074 5.75085 12.074 7.90308C12.074 8.85193 12.4148 9.7226 12.9799 10.3997H7.6167L4.28125 28H27.6728L24.3373 10.3997ZM15.9771 5.40625C17.3537 5.40625 18.4738 6.52631 18.4738 7.90308C18.4738 9.27966 17.3537 10.3997 15.9771 10.3997C14.6003 10.3997 13.4803 9.27966 13.4803 7.90308C13.4803 6.52631 14.6003 5.40625 15.9771 5.40625ZM8.78143 11.806H23.1726L25.975 26.5938H5.979L8.78143 11.806Z" fill="black"/>
<path d="M16.0055 16.4026H14.4094L12.1779 18.631V16.4026H11.0309V22.0225H12.1779V20.1017L12.7563 19.5377L14.5044 22.0225H15.985L13.5753 18.7496L16.0055 16.4026Z" fill="black"/>
<path d="M18.2747 20.0007H19.7903V20.617C19.6685 20.7058 19.5026 20.793 19.2955 20.8766C19.0436 20.9786 18.7817 21.0303 18.5177 21.0303C18.2154 21.0303 17.9261 20.9627 17.6575 20.8294C17.3986 20.701 17.2063 20.5092 17.0701 20.2426C16.9294 19.9677 16.8582 19.6152 16.8582 19.195C16.8582 18.8546 16.9186 18.5355 17.0371 18.2474C17.1041 18.0872 17.1995 17.938 17.3207 17.8034C17.4363 17.6752 17.5936 17.569 17.7878 17.4879C17.9858 17.4053 18.2277 17.3634 18.5071 17.3634C18.7347 17.3634 18.9432 17.4028 19.1269 17.4804C19.3016 17.5542 19.4356 17.6511 19.5251 17.7681C19.6222 17.8948 19.7062 18.0775 19.7751 18.3113L19.8395 18.5302L20.8955 18.2405L20.8386 18.0191C20.7417 17.6419 20.5959 17.329 20.4052 17.0886C20.2094 16.8419 19.939 16.6482 19.601 16.5127C19.2736 16.3814 18.9044 16.3149 18.5036 16.3149C17.9539 16.3149 17.4592 16.4307 17.0331 16.6588C16.5969 16.8925 16.2585 17.2534 16.028 17.7314C15.8037 18.1962 15.6902 18.7026 15.6902 19.2373C15.6902 19.7786 15.8052 20.277 16.0324 20.7184C16.2648 21.1703 16.6132 21.5203 17.0684 21.7587C17.5139 21.9921 18.0145 22.1106 18.5563 22.1106C18.9579 22.1106 19.3547 22.0375 19.7357 21.8932C20.1131 21.7506 20.4832 21.5356 20.8356 21.2546L20.9233 21.1848V18.9271L18.2747 18.9313V20.0007Z" fill="black"/>
</symbol>

<symbol id="apitherapy"  fill="none">
<path d="M28 5.78125H4V23.2266H18.7643V26.2543L21.3884 24.9725L24.0125 26.2543V23.2266H28V5.78125ZM21.3884 20.413C20.0701 20.413 18.9978 19.3406 18.9978 18.0224C18.9978 16.7042 20.0701 15.6318 21.3884 15.6318C22.7066 15.6318 23.7791 16.7042 23.7791 18.0224C23.7791 19.3406 22.7066 20.413 21.3884 20.413ZM21.3884 23.4075L20.1706 24.0023V21.6177C20.5531 21.7477 20.9623 21.8193 21.3884 21.8193C21.8143 21.8193 22.2236 21.7477 22.6063 21.6177V24.0023L21.3884 23.4075ZM26.5938 21.8204H24.0125V20.7626C24.7343 20.071 25.1853 19.0987 25.1853 18.0224C25.1853 15.9288 23.4821 14.2255 21.3884 14.2255C19.2948 14.2255 17.5916 15.9288 17.5916 18.0224C17.5916 19.0987 18.0424 20.0712 18.7643 20.7626V21.8204H5.40625V7.1875H26.5938V21.8204Z" fill="black"/>
<path d="M6.81415 11.4106H25.1859V12.8169H6.81415V11.4106Z" fill="black"/>
<path d="M8.92517 8.59595H23.0748V10.0022H8.92517V8.59595Z" fill="black"/>
<path d="M6.81415 19.0056H13.6544V20.4119H6.81415V19.0056Z" fill="black"/>
<path d="M6.81415 16.1908H13.6544V17.597H6.81415V16.1908Z" fill="black"/>
</symbol>

<symbol id="fullmenu-close"  fill="none">
<g opacity="0.7" clip-path="url(#clip0)">
<path d="M13.5556 10L19.3333 4.22222C20.2222 3.33333 20.2222 2 19.3333 1.22222L18.8889 0.777778C18 -0.111111 16.6667 -0.111111 15.8889 0.777778L10 6.44445L4.22222 0.666667C3.33333 -0.222222 2 -0.222222 1.11111 0.666667L0.666667 1.11111C-0.222222 2 -0.222222 3.33333 0.666667 4.11111L6.44445 10L0.666667 15.7778C-0.222222 16.6667 -0.222222 18 0.666667 18.7778L1.11111 19.3333C2 20.2222 3.33333 20.2222 4.11111 19.3333L10 13.5556L15.7778 19.3333C16.6667 20.2222 18 20.2222 18.7778 19.3333L19.2222 18.8889C20.1111 18 20.1111 16.6667 19.2222 15.8889L13.5556 10Z" fill="white"/>
</g>
<defs>
<clipPath id="clip0">
<rect width="20" height="20" fill="white"/>
</clipPath>
</defs>
</symbol>

</svg>

